HIERARCHY
ROOT Hips
{
  OFFSET -187.679 86.5976 -156.378
  CHANNELS 6 Xposition Yposition Zposition Zrotation Xrotation Yrotation
  JOINT LeftUpLeg
  {
    OFFSET 8.64259 1.95398 -2.38835
    CHANNELS 3 Zrotation Xrotation Yrotation
    JOINT LeftLeg
    {
      OFFSET 43.7702 0 0
      CHANNELS 3 Zrotation Xrotation Yrotation
      JOINT LeftFoot
      {
        OFFSET 40.6238 0 0
        CHANNELS 3 Zrotation Xrotation Yrotation
        JOINT LeftToeBase
        {
          OFFSET 12.7242 0 0
          CHANNELS 3 Zrotation Xrotation Yrotation
          End Site
          {
            OFFSET 0 0 0
          }
        }
      }
    }
  }
  JOINT RightUpLeg
  {
    OFFSET -8.2249 1.95398 -2.59336
    CHANNELS 3 Zrotation Xrotation Yrotation
    JOINT RightLeg
    {
      OFFSET 43.5653 0 0
      CHANNELS 3 Zrotation Xrotation Yrotation
      JOINT RightFoot
      {
        OFFSET 40.6238 0 0
        CHANNELS 3 Zrotation Xrotation Yrotation
        JOINT RightToeBase
        {
          OFFSET 12.7242 0 0
          CHANNELS 3 Zrotation Xrotation Yrotation
          End Site
          {
            OFFSET 0 0 0
          }
        }
      }
    }
  }
  JOINT Spine
  {
    OFFSET 0.165834 0.87714 6.61349
    CHANNELS 3 Zrotation Xrotation Yrotation
    JOINT Spine1
    {
      OFFSET 7.38963 1.71661e-005 0
      CHANNELS 3 Zrotation Xrotation Yrotation
      JOINT Spine2
      {
        OFFSET 11.9445 1.14441e-005 0
        CHANNELS 3 Zrotation Xrotation Yrotation
        JOINT Spine3
        {
          OFFSET 14.7254 4.19617e-005 0
          CHANNELS 3 Zrotation Xrotation Yrotation
          JOINT Spine4
          {
            OFFSET 10.9679 0 0
            CHANNELS 3 Zrotation Xrotation Yrotation
            JOINT RightShoulder
            {
              OFFSET 2.46616 -1.6653 3.69651
              CHANNELS 3 Zrotation Xrotation Yrotation
              JOINT RightArm
              {
                OFFSET 13.0012 0 0
                CHANNELS 3 Zrotation Xrotation Yrotation
                JOINT RightForeArm
                {
                  OFFSET 28.7848 1.52588e-005 0
                  CHANNELS 3 Zrotation Xrotation Yrotation
                  JOINT RightHand
                  {
                    OFFSET 26.5688 1.52588e-005 0
                    CHANNELS 3 Zrotation Xrotation Yrotation
                    End Site
                    {
                      OFFSET 0 0 0
                    }
                  }
                }
              }
            }
            JOINT LeftShoulder
            {
              OFFSET 2.38034 -1.29275 -3.7523
              CHANNELS 3 Zrotation Xrotation Yrotation
              JOINT LeftArm
              {
                OFFSET 16.3182 6.10352e-005 0
                CHANNELS 3 Zrotation Xrotation Yrotation
                JOINT LeftForeArm
                {
                  OFFSET 27.0901 0 0
                  CHANNELS 3 Zrotation Xrotation Yrotation
                  JOINT LeftHand
                  {
                    OFFSET 24.5451 1.52588e-005 0
                    CHANNELS 3 Zrotation Xrotation Yrotation
                    End Site
                    {
                      OFFSET 0 0 0
                    }
                  }
                }
              }
            }
            JOINT Neck
            {
              OFFSET 5.0226 -0.0266342 0
              CHANNELS 3 Zrotation Xrotation Yrotation
              JOINT Head
              {
                OFFSET 6.69363 2.86102e-005 0
                CHANNELS 3 Zrotation Xrotation Yrotation
                End Site
                {
                  OFFSET 0 0 0
                }
              }
            }
          }
        }
      }
    }
  }
}
MOTION
Frames:	12
Frame Time:	0.0416667
-343.129 93.2545 316.727 106.965 66.8034 74.617 -175.462 8.69069 85.4914 -44.504 38.6099 10.6287 78.7694 9.58601 0.943166 14.62 -5.52608 -0.326221 164.066 -25.3619 89.1913 -32.9635 17.7114 14.7465 50.9078 1.29844 1.28446 22.0882 -2.98624 5.4937 -2.46679 7.00626 -89.3989 12.9058 -4.60978 1.75857 1.24159 -4.52794 1.96008 -21.3586 -4.92472 0.288716 -1.346 -4.9247 0.28872 90.4887 -49.8095 -99.9149 35.2445 -23.662 0.773965 -175.302 -10.3595 -159.669 14.5075 -8.43429 -62.8444 -91.3207 -51.1606 77.2614 -21.7874 19.5852 11.0666 12.8671 4.71699 -19.0971 6.05717 0.0131021 -2.83272 1.05509 -0.298378 -3.90228 4.71779 0.398914 1.73119 
-342.111 95.2762 314.964 103.478 56.603 77.1781 -176.095 0.147288 84.1402 -29.8155 28.7629 7.50633 75.7715 7.58055 -0.0189369 15.9421 -5.03516 -0.203275 163.219 -7.60965 86.9113 -49.6283 -1.56289 5.79688 63.0109 -1.74406 -1.37686 24.9267 -2.07606 4.5327 -1.74042 7.62395 -89.3797 11.6501 -3.17126 1.56511 -0.0181149 -3.09931 1.70323 -22.5832 -3.49488 0.538663 -2.57055 -3.49487 0.538657 88.6852 -48.9796 -102.887 32.7881 -23.7598 -3.25554 -172.344 -13.1836 -163.434 5.13275 -3.4039 -67.4658 -89.6365 -49.2421 79.3352 -17.9797 19.5916 -4.63902 6.35274 -10.9063 -14.6141 1.19604 0.183117 4.2282 5.64348 1.01696 -2.32023 5.9967 1.46023 0.261 
-340.757 96.1677 314.413 99.2466 49.8419 82.5459 -176.35 -2.85524 84.3321 -22.4231 20.7306 7.46043 74.6111 6.38177 -2.42414 16.2978 -5.57441 1.30975 171.544 8.89541 84.6821 -51.0955 6.52336 0.838876 69.6512 -3.79984 2.30765 20.8088 -1.45508 0.851619 -1.26601 7.95968 -89.5109 10.9671 -2.29391 1.19071 -0.702441 -2.23928 1.29053 -23.2528 -2.54567 0.445883 -3.24012 -2.54566 0.445885 85.6665 -49.7866 -107.266 29.4094 -21.7355 -4.8249 -169.932 -5.70568 -166.133 1.48349 0.318999 -90.6358 -89.0675 -45.1537 79.323 -16.6238 16.6151 -17.4916 4.69124 -12.7454 -14.1385 5.35886 0.392901 -0.187881 7.47354 1.92883 -5.33566 8.00253 3.11407 1.56367 
-337.567 95.921 312.398 97.8837 44.9899 85.7122 -175.33 -5.54396 86.2203 -21.2287 17.0005 7.53983 76.5456 7.13583 -1.62085 16.6964 -5.85069 2.24726 177.363 16.2422 91.8613 -37.4435 10.971 -0.436661 66.9462 -3.24746 3.63984 22.1003 -0.382072 -1.9145 -0.784763 8.06517 -89.7188 10.7481 -1.43301 0.691528 -0.922243 -1.4012 0.753929 -23.4635 -1.57458 0.228787 -3.45081 -1.5746 0.228773 85.2305 -50.3619 -107.743 28.6579 -19.325 -3.32921 -32.8595 -35.564 -33.186 -15.309 -6.33111 -27.4219 -89.9067 -44.0138 77.7304 -13.7614 15.7516 -25.1311 11.5718 -3.67836 -22.0055 -0.743321 -0.0623008 -1.89025 7.07142 1.94076 -7.96591 9.82876 3.76575 2.56681 
-333.028 94.7194 308.978 96.233 42.4197 89.143 -173.777 -7.38861 88.6857 -23.0192 14.9832 7.44261 80.6357 8.19173 -2.14476 18.1329 -5.9288 3.82935 179.302 17.803 95.6786 -16.0592 5.36838 1.05389 61.6817 -1.86953 -2.58964 25.8999 -1.80855 4.32868 -0.41629 8.08515 -89.964 10.7043 -0.812295 0.146144 -0.966413 -0.805077 0.181749 -23.5036 -0.818654 -0.104756 -3.49095 -0.818666 -0.104764 85.8435 -50.6578 -106.733 29.3894 -17.3151 -1.5502 -22.4777 -12.7397 -29.1182 -14.8086 -0.0711434 -4.54894 -89.7637 -42.1971 77.5122 -12.558 15.2342 -33.0911 13.7802 0.83037 -24.1125 -0.594599 -0.0608738 -2.52049 8.18397 1.23477 -10.1709 9.32323 3.63088 2.79588 
-327.271 92.9528 304.02 95.2208 41.8836 90.9747 -171.488 -12.0482 91.4108 -22.0999 14.9008 6.54915 84.5466 9.86272 -2.71709 18.1134 -5.03536 1.81738 -179.251 20.199 97.9077 -7.63972 7.50144 2.59551 63.0551 -2.23325 -0.271239 25.6665 -1.77612 4.0771 -0.360668 8.02946 -90.1226 10.815 -0.77475 -0.170912 -0.855718 -0.78154 -0.136644 -23.3924 -0.687566 -0.39586 -3.37973 -0.68757 -0.395865 84.3789 -51.9781 -108.497 28.938 -16.2887 0.54746 -21.3493 -13.4241 -25.7425 -9.27225 -0.104897 -3.72043 -90.0758 -42.5269 77.0933 -10.4104 15.2709 -36.3994 15.9962 4.46059 -26.4632 -1.21809 -0.0579066 -1.59011 7.91334 1.48384 -10.5893 10.0375 3.89615 2.22837 
-320.635 91.1854 298.017 95.9988 42.3065 91.2467 -168.764 -18.9979 94.375 -20.0541 16.1522 6.15507 85.6951 10.7097 -3.02576 19.6201 -4.86947 2.97139 -179.024 23.0441 100.074 -15.8751 6.88845 2.36012 60.9108 -0.939456 -1.3861 25.6227 -1.43979 3.01978 -0.386187 8.02083 -90.3379 10.8284 -0.924906 -0.586419 -0.842328 -0.949821 -0.545146 -23.3781 -0.705905 -0.837274 -3.36544 -0.705907 -0.837283 84.0533 -52.3794 -108.847 29.1679 -15.1147 2.26321 -20.2317 -14.8364 -22.1994 -7.51929 -0.193066 -2.28128 -91.2536 -43.4848 75.4431 -9.13137 16.9653 -35.9415 16.123 6.12713 -25.0518 -2.73892 -0.0922777 -2.73298 6.76277 1.67174 -9.30824 10.9925 3.67116 1.67938 
-313.65 90.9728 291.208 97.3654 45.2352 91.3207 -165.75 -23.012 98.7049 -22.2028 22.1784 7.6096 78.6028 9.01317 -0.225149 24.4192 -2.11409 1.09 179.461 25.5046 100.997 -31.1704 5.40767 2.60289 59.5336 0.500272 -0.73882 21.0599 -1.80982 1.66696 -0.653001 8.0774 -90.6503 10.7123 -1.60001 -1.14589 -0.958116 -1.64888 -1.07437 -23.494 -1.1817 -1.57375 -3.4814 -1.18171 -1.57376 85.1325 -51.9209 -107.405 29.4835 -15.1662 2.21192 -18.1289 -16.2745 -17.3931 -7.16918 -0.00604219 -5.25676 -90.4826 -42.7003 76.4732 -11.8477 21.5295 -32.5809 15.3583 8.23909 -21.538 -3.61693 -0.109618 -2.1415 9.75533 1.38941 -7.72124 7.8162 3.28224 2.28985 
-307.734 91.4753 284.764 99.9164 46.6444 88.1167 -167.61 -17.4447 98.3557 -40.4496 29.5156 9.32655 64.643 3.053 0.949204 24.2681 -0.876444 -2.3915 177.566 22.0952 99.6079 -39.6616 4.84065 2.96195 64.9718 -1.31613 -0.699569 22.1987 -1.90858 2.51637 -0.726117 8.14699 -90.6094 10.5714 -1.72625 -1.05604 -1.0988 -1.77107 -0.979037 -23.6365 -1.32909 -1.52603 -3.62388 -1.3291 -1.52604 85.2386 -51.212 -107.466 29.3904 -15.0188 1.90771 -16.9377 -16.4582 -14.5041 -6.73317 -0.00951089 -5.22624 -90.6025 -42.9923 76.3562 -14.9747 26.025 -26.7569 11.2622 4.58389 -14.0831 -3.78714 -0.0910517 -3.83913 9.06333 1.44256 -5.98943 8.39175 2.88258 1.84628 
-302.097 92.7468 279.758 100.723 46.8008 88.0739 -168.572 -3.13639 100.611 -60.5586 31.0927 9.36094 57.0989 -0.944391 -1.38608 13.9296 -2.70941 -6.88085 177.749 15.4266 100.322 -38.2784 4.82145 3.34132 68.7937 -2.4593 -1.01016 23.3607 -1.74861 2.67131 -0.39129 8.2105 -90.6176 10.4464 -1.06262 -1.13397 -1.22452 -1.11148 -1.08611 -23.7574 -0.672726 -1.40086 -3.74479 -0.672713 -1.40086 84.6711 -51.1423 -108.331 27.8493 -16.1609 -0.544697 -17.2061 -16.0575 -15.7026 -8.24587 -0.0341452 -4.94539 -89.7676 -43.1389 77.7386 -19.5417 25.1983 -19.3562 10.0552 1.82128 -10.8865 -1.98882 -0.0826682 -3.89963 8.70885 0.116571 -5.93258 7.81302 1.55652 1.87901 
-297.374 94.486 274.701 100.033 48.099 86.4414 -172.063 10.9687 96.4988 -68.0643 24.075 7.69636 64.3858 2.79132 0.945409 12.0456 -6.40571 -0.716735 177.38 8.45066 98.0088 -33.1175 5.10686 3.12521 70.8457 -3.02479 -0.3737 23.6699 -1.59643 2.39014 -0.0794691 8.16416 -90.359 10.5449 -0.323112 -0.683411 -1.12615 -0.352896 -0.668544 -23.6599 -0.102794 -0.748925 -3.64721 -0.102791 -0.748928 85.0311 -50.3657 -108.038 24.8543 -15.4917 -3.95932 -20.1316 -17.3495 -21.5793 -14.8175 -0.465325 -1.23814 -89.7822 -43.8792 77.8949 -22.9742 21.8711 -10.8006 10.9211 0.651492 -13.4099 -1.75423 -0.0776321 -2.49742 6.36325 -1.47362 -5.62802 8.70631 -0.181545 1.60094 
-292.674 95.471 269.443 99.2116 47.2518 84.1681 -174.448 20.7931 91.6822 -59.7503 17.284 5.17929 66.9344 4.03586 1.02843 12.596 -7.11711 1.11979 176.794 1.75339 95.1048 -28.872 3.46986 1.60178 73.2961 -3.39747 0.168552 23.7771 -1.34997 1.71402 0.358671 8.20939 -89.9536 10.4568 0.73592 0.0269066 -1.21394 0.736409 -0.00552886 -23.7507 0.693811 0.246847 -3.73802 0.693804 0.246837 86.0812 -49.1869 -106.822 21.6802 -19.7842 -9.83415 -19.4259 -15.0618 -22.5295 -8.63772 -0.146011 -3.97964 -89.0533 -43.2193 78.9113 -25.8681 19.5897 -2.54986 11.1555 -2.55504 -18.3048 -1.68626 -0.0736901 -2.08826 4.95676 -2.72377 -4.93338 9.2013 -1.67633 0.826114 
